<svg width="186" height="206" viewBox="0 0 186 206" fill="none" xmlns="http://www.w3.org/2000/svg">
<path d="M78.6409 3.26055C66.7742 8.72722 53.5742 23.1272 51.0409 33.6606L50.1076 37.2606H35.1742C23.7076 37.2606 19.3076 37.7939 15.7076 39.6606L11.0409 41.9272L9.4409 61.9272C6.10756 101.661 3.70756 132.994 2.37423 151.261C-1.22577 202.061 -1.22577 200.461 5.8409 203.394C12.5076 206.194 173.574 206.194 180.374 203.394C187.441 200.461 187.308 204.727 182.374 131.927C181.708 122.061 180.508 105.794 179.708 95.9272C179.041 86.0606 178.108 71.2606 177.708 63.2606C176.641 43.9272 176.374 42.9939 171.308 39.9272C167.708 37.6606 164.641 37.2606 152.241 37.2606H137.441L133.308 28.8606C130.908 24.1939 126.108 17.2606 122.374 13.6606C108.908 0.193886 93.4409 -3.40611 78.6409 3.26055ZM100.508 8.59389C104.108 9.66055 109.841 12.9939 113.308 15.9272C119.574 21.3939 127.708 32.3272 127.708 35.5272C127.708 36.8606 121.041 37.2606 93.0409 37.2606C73.9742 37.2606 58.3742 36.9939 58.3742 36.5939C58.3742 36.1939 59.5742 33.5272 61.0409 30.5939C66.3742 20.1939 75.3076 12.3272 86.2409 8.46055C92.3742 6.19389 92.6409 6.19389 100.508 8.59389ZM93.0409 77.1272V109.127L97.4409 109.527L101.708 109.927L102.374 120.861L103.041 131.794L111.574 126.327C117.974 122.327 120.641 121.261 122.241 122.194C125.441 124.061 129.574 132.461 128.641 134.994C128.241 136.194 123.974 139.394 119.174 142.061C110.908 146.861 110.508 147.261 112.641 149.527C113.841 150.861 115.308 151.927 115.841 151.927C118.908 151.927 129.041 159.527 129.041 161.794C129.041 165.661 123.441 173.261 120.641 173.261C119.308 173.261 114.908 171.127 110.908 168.594C106.908 166.061 103.308 163.927 103.041 163.927C102.641 163.927 102.374 168.327 102.374 173.661C102.374 184.061 101.174 186.594 96.1076 186.594C93.4409 186.594 93.0409 187.261 93.0409 191.927V197.261L50.1076 196.994L7.0409 196.594L7.30756 193.261C7.30756 191.394 8.10756 180.061 9.0409 167.927C9.8409 155.794 11.0409 137.794 11.7076 127.927C12.3742 118.061 13.5742 101.794 14.2409 91.9272C15.0409 82.0606 15.9742 68.1939 16.5076 61.2606C16.9076 54.3272 17.4409 47.7939 17.8409 46.8606C18.1076 45.6606 26.9076 45.2606 55.7076 45.2606H93.0409V77.1272ZM143.308 61.5272C146.908 64.8606 147.308 71.2606 144.241 75.6606C141.174 80.1939 131.574 79.7939 127.841 75.1272C124.108 70.3272 124.374 66.8606 128.641 62.3272C133.041 57.7939 138.908 57.3939 143.308 61.5272Z" fill="#701cda"/>
<path d="M42.1076 63.2606C38.6409 67.9273 39.0409 72.5939 43.3076 75.9273C47.5742 79.2606 53.8409 78.7273 56.7742 74.9939C59.1742 71.6606 58.7742 64.7273 55.9742 62.1939C52.2409 58.7273 44.9076 59.3939 42.1076 63.2606Z" fill="#701cda"/>
<path d="M85.0409 121.927C85.0409 128.194 84.7742 133.261 84.3742 133.261C84.1076 133.261 79.8409 130.861 75.0409 127.927C70.2409 124.994 65.8409 122.594 65.3076 122.594C63.5742 122.594 58.1076 131.661 58.6409 133.794C58.7742 134.861 62.9076 138.194 67.7076 140.994C72.3742 143.927 76.5076 146.861 76.7742 147.661C77.0409 148.461 72.9076 151.527 67.8409 154.594C57.1742 160.727 56.5076 162.461 62.1076 168.994L65.7076 173.261L73.9742 167.927C78.5076 164.994 82.9076 162.594 83.5742 162.594C84.3742 162.594 85.0409 167.394 85.3076 173.527C85.7076 184.461 85.7076 184.594 89.4409 184.994L93.0409 185.394V148.061V110.594H89.0409H85.0409V121.927Z" fill="#701cda"/>
</svg>
