<svg width="512" height="512" viewBox="0 0 512 512" fill="none" xmlns="http://www.w3.org/2000/svg">
<g clip-path="url(#clip0_501_2)">
<path d="M512 192C512 175.026 505.257 158.748 493.255 146.745C481.253 134.743 464.974 128 448 128H384C384 94.0523 370.514 61.495 346.51 37.4903C322.505 13.4857 289.948 0 256 0C222.052 0 189.495 13.4857 165.49 37.4903C141.486 61.495 128 94.0523 128 128H64C47.0261 128 30.7475 134.743 18.7452 146.745C6.74284 158.748 0 175.026 0 192L0 405.333C0.0338743 433.613 11.2828 460.724 31.2794 480.721C51.2759 500.717 78.3873 511.966 106.667 512H405.333C433.613 511.966 460.724 500.717 480.721 480.721C500.717 460.724 511.966 433.613 512 405.333V192ZM170.667 128C170.667 105.368 179.657 83.6633 195.66 67.6602C211.663 51.6571 233.368 42.6667 256 42.6667C278.632 42.6667 300.337 51.6571 316.34 67.6602C332.343 83.6633 341.333 105.368 341.333 128H170.667Z" fill="#701CDA"/>
</g>
<defs>
<clipPath id="clip0_501_2">
<rect width="512" height="512" fill="white"/>
</clipPath>
</defs>
</svg>
